<?xml version="1.0" standalone="no"?>
<!DOCTYPE svg PUBLIC "-//W3C//DTD SVG 20010904//EN"
 "http://www.w3.org/TR/2001/REC-SVG-20010904/DTD/svg10.dtd">
<svg version="1.0" xmlns="http://www.w3.org/2000/svg"
 width="500.000000pt" height="500.000000pt" viewBox="0 0 500.000000 500.000000"
 preserveAspectRatio="xMidYMid meet">

<g transform="translate(0.000000,500.000000) scale(0.100000,-0.100000)"
fill="#000000" stroke="none">
<path d="M2627 4425 c-110 -42 -263 -176 -352 -311 -73 -109 -139 -293 -162
-449 -4 -27 -8 -53 -9 -57 -1 -5 -2 -11 -3 -15 -1 -5 -16 29 -34 74 -88 215
-223 339 -463 422 -65 23 -195 33 -200 16 -2 -5 24 -30 57 -55 67 -50 244
-228 274 -275 11 -16 22 -32 25 -35 3 -3 17 -21 30 -40 51 -73 173 -201 240
-252 l35 -27 -65 -1 c-152 -1 -307 -73 -429 -199 -52 -55 -134 -168 -166 -231
-62 -121 -82 -265 -51 -355 l14 -40 -39 -7 c-136 -24 -239 -148 -239 -287 0
-66 16 -114 54 -164 l34 -44 -33 -16 c-105 -50 -184 -178 -173 -279 10 -83 64
-167 134 -206 16 -9 16 -11 -3 -38 -108 -156 6 -354 203 -354 34 0 79 6 101
14 40 14 40 14 57 -18 20 -37 68 -70 124 -85 l41 -11 -38 -63 c-58 -95 -96
-183 -125 -289 -30 -107 -30 -133 -2 -133 15 0 24 18 46 95 47 161 82 242 156
356 84 129 222 257 347 323 56 30 57 30 57 8 0 -75 64 -168 143 -209 117 -59
256 -65 367 -15 77 35 150 126 150 188 0 14 3 28 6 32 5 5 71 -28 84 -43 3 -3
30 -24 61 -47 171 -130 319 -358 373 -575 25 -96 34 -112 59 -102 22 8 22 13
-7 114 -41 148 -86 247 -164 358 l-43 62 28 0 c67 0 203 100 203 148 0 11 7
13 28 7 56 -15 136 -17 181 -4 195 53 284 288 156 411 l-22 21 52 53 c120 119
126 291 14 417 -38 43 -128 97 -163 97 -20 0 -20 4 -1 39 31 61 45 119 45 193
0 175 -110 291 -288 302 l-67 5 -12 73 c-41 262 -207 455 -463 538 -214 69
-464 56 -592 -32 -14 -10 -29 -18 -32 -18 -13 0 -5 238 10 310 27 133 96 312
128 332 24 16 96 8 116 -12 27 -27 26 -34 -20 -76 -59 -55 -76 -133 -43 -201
20 -43 56 -59 99 -44 21 8 40 8 57 2 34 -13 72 17 88 68 9 32 8 48 -5 89 -17
52 -72 112 -101 112 -9 0 -15 9 -15 21 0 53 -51 99 -112 99 l-30 0 17 28 c10
15 46 55 80 90 l62 62 62 0 c67 0 114 -18 131 -49 13 -26 13 -31 -3 -31 -36 0
-97 -100 -97 -158 0 -64 49 -132 96 -132 9 0 29 8 44 17 24 14 34 15 55 5 37
-17 59 -15 88 8 16 13 28 35 32 60 12 73 -63 189 -130 202 -11 2 -29 19 -39
39 -24 44 -68 75 -121 87 l-40 8 35 19 c29 15 61 19 175 21 77 2 156 -2 176
-7 76 -19 128 -88 91 -119 -41 -34 -55 -72 -56 -151 -1 -69 2 -80 23 -103 26
-28 84 -36 120 -16 12 6 30 6 52 0 70 -20 112 54 84 148 -20 66 -55 106 -110
128 -27 10 -47 25 -51 38 -24 78 -94 119 -214 124 -47 2 -119 5 -160 7 -50 3
-88 -1 -113 -10z m561 -225 c40 -38 62 -112 46 -154 -8 -20 -28 -20 -59 0 -23
15 -26 15 -51 -5 -33 -26 -39 -26 -64 -1 -28 28 -28 121 1 161 29 41 84 41
127 -1z m-377 -66 c53 -51 64 -154 16 -154 -12 0 -34 6 -48 14 -22 11 -28 11
-48 -5 -52 -43 -97 -3 -88 77 12 107 93 140 168 68z m-1173 -114 c225 -87 324
-196 413 -457 15 -46 24 -83 20 -83 -21 0 -176 166 -256 275 -49 66 -128 159
-176 208 -47 48 -85 87 -82 87 2 0 39 -13 81 -30z m888 -105 c32 -42 42 -111
21 -139 -13 -18 -15 -18 -41 -1 -25 16 -28 16 -45 1 -41 -37 -71 -12 -71 60 0
43 5 57 29 83 39 42 72 41 107 -4z m182 -486 c48 -12 117 -36 155 -55 65 -32
187 -118 187 -132 0 -4 10 -18 23 -32 65 -71 127 -226 136 -340 l6 -75 75 0
c136 -1 211 -42 256 -140 40 -85 27 -214 -31 -299 -45 -66 -39 -74 77 -100 41
-9 110 -67 143 -120 25 -42 29 -58 29 -120 0 -60 -4 -79 -26 -117 -25 -42 -73
-91 -129 -130 l-23 -16 51 -49 c32 -30 55 -63 61 -85 22 -82 -25 -179 -111
-233 -63 -39 -169 -43 -233 -9 -45 24 -64 17 -64 -21 0 -62 -122 -155 -204
-156 -10 0 -60 39 -110 87 -51 49 -122 105 -159 127 -37 21 -67 40 -67 41 0 1
29 20 65 41 262 152 366 469 285 863 -31 155 -95 310 -126 311 -30 1 -31 -26
-2 -90 61 -131 78 -196 99 -378 22 -180 -15 -355 -103 -489 -79 -122 -187
-197 -343 -239 -98 -27 -322 -27 -419 0 -128 34 -217 88 -306 184 l-79 86 -56
3 c-91 5 -149 43 -180 116 -44 105 21 215 131 220 l49 2 6 75 c8 90 32 184 71
266 31 67 33 80 18 89 -17 10 -37 -12 -64 -69 -39 -83 -65 -166 -72 -237 l-6
-66 -48 -12 c-48 -12 -104 -60 -130 -109 -19 -38 -14 -155 9 -199 36 -71 93
-108 191 -125 69 -12 73 -14 106 -60 36 -48 139 -132 184 -150 24 -10 24 -11
6 -22 -126 -76 -208 -138 -284 -215 -86 -88 -90 -91 -135 -91 -38 0 -51 6 -81
34 -20 19 -39 47 -42 66 -9 41 -26 47 -63 21 -16 -11 -51 -26 -78 -32 -42 -10
-58 -9 -103 6 -138 46 -181 184 -88 289 l39 45 -23 20 c-12 12 -27 21 -34 21
-26 0 -94 83 -109 134 -19 62 -19 72 0 128 23 67 87 123 188 162 20 8 37 20
37 26 0 6 -18 29 -40 52 -97 102 -106 221 -22 318 44 52 97 79 172 87 33 3 63
10 66 15 3 5 -4 32 -16 60 -33 77 -30 204 6 295 59 148 203 321 325 391 103
58 169 73 314 71 110 -2 135 1 157 15 15 10 58 28 95 41 94 33 266 34 391 4z
m-468 -2015 c84 -18 286 -18 365 1 76 19 72 19 79 -7 15 -60 -41 -146 -124
-189 -39 -21 -59 -24 -145 -24 -90 1 -106 3 -159 30 -68 34 -109 80 -126 141
-16 55 -8 79 23 70 12 -4 51 -14 87 -22z"/>
<path d="M2584 2926 c-3 -8 4 -32 15 -55 68 -131 92 -229 92 -363 0 -62 4
-108 9 -108 5 0 17 11 26 25 25 38 15 228 -16 315 -53 149 -109 231 -126 186z"/>
<path d="M2187 2914 c-4 -4 -7 -32 -7 -61 0 -135 -60 -305 -139 -395 -41 -46
-50 -71 -31 -83 15 -9 104 79 133 134 72 131 115 400 67 409 -9 1 -19 0 -23
-4z"/>
<path d="M2393 2888 c3 -18 13 -60 22 -93 25 -86 23 -231 -4 -315 -21 -66 -17
-88 13 -77 29 11 65 140 66 233 1 125 -48 284 -87 284 -11 0 -14 -8 -10 -32z"/>
<path d="M2201 2234 c-18 -13 -21 -25 -21 -87 1 -78 14 -107 48 -107 30 0 42
29 42 100 0 90 -25 124 -69 94z"/>
<path d="M2670 2230 c-28 -28 -29 -149 -2 -173 24 -22 35 -21 55 1 23 25 23
138 1 170 -19 27 -28 28 -54 2z"/>
<path d="M2413 1984 c-3 -8 4 -25 17 -40 l23 -24 -21 -23 c-45 -47 -18 -86 29
-41 l29 28 23 -22 c13 -12 31 -22 40 -22 23 0 22 33 -3 55 -24 22 -25 38 -5
55 18 15 20 50 3 50 -6 0 -22 -10 -35 -22 l-23 -21 -23 21 c-27 26 -45 28 -54
6z"/>
</g>
</svg>
